<?xml version="1.0" encoding="UTF-8"?>
<svg id="square_mark" xmlns="http://www.w3.org/2000/svg" xmlns:xlink="http://www.w3.org/1999/xlink" version="1.1" viewBox="0 0 300 300">
  <!-- Generator: Adobe Illustrator 30.5.1, SVG Export Plug-In . SVG Version: 2.1.4 Build 3)  -->
  <defs>
    <style>
      .st0 {
        fill: #fff;
      }

      .st1 {
        fill: url(#Unbenannter_Verlauf_10);
      }
    </style>
    <linearGradient id="Unbenannter_Verlauf_10" data-name="Unbenannter Verlauf 10" x1="150" y1="305" x2="150" y2="-5" gradientUnits="userSpaceOnUse">
      <stop offset="0" stop-color="#092e4b"/>
      <stop offset="1" stop-color="#125b96"/>
    </linearGradient>
  </defs>
  <rect class="st1" x="-5" y="-5" width="310" height="310"/>
  <path class="st0" d="M57.972,136.057h12.853l.002-14.221c0-18.047,12.714-24.336,23.242-24.336,9.024,0,14.355,3.418,14.355,3.418l-6.152,13.81s-2.461-1.914-6.562-1.914c-3.145,0-8.478,1.776-8.478,9.842l-.002,13.401h15.861v14.766h-15.861l.002,51.678h-16.405l-.002-51.678h-12.853v-14.766ZM116.759,180.899c6.016,0,10.801,4.785,10.801,10.801s-4.785,10.801-10.801,10.801-10.801-4.785-10.801-10.801,4.785-10.801,10.801-10.801ZM242.028,160.801v41.699h-16.408v-37.462c0-8.886-3.418-13.671-11.62-13.671-8.614,0-12.715,8.339-12.715,8.339v42.794h-16.405v-37.462c0-8.886-3.418-13.671-11.62-13.671-8.614,0-12.715,8.339-12.715,8.339v42.794h-16.408v-64.804h15.313v9.434s5.88-11.076,19.142-11.076c15.586,0,20.095,11.348,20.095,11.348,0,0,5.471-11.348,20.645-11.348,13.126,0,22.696,9.161,22.696,24.747Z"/>
</svg>